<svg width="181" height="73" viewBox="0 0 181 73" fill="none" xmlns="http://www.w3.org/2000/svg">
<path d="M1.31248 70.6877C1.05648 63.4557 0.928477 54.7837 0.928477 44.6717C0.928477 34.4957 1.24848 20.9277 1.88848 3.96766C7.26448 1.98366 12.7685 0.991659 18.4005 0.991659C24.0965 0.991659 29.1525 3.10366 33.5685 7.32766C38.0485 11.4877 40.2885 16.7677 40.2885 23.1677C40.2885 29.5037 37.8565 35.0077 32.9925 39.6797C28.1925 44.2877 21.8885 47.6797 14.0805 49.8557C14.0805 57.0237 14.1765 64.3837 14.3685 71.9357L1.31248 70.6877ZM23.5845 32.8637C25.9525 30.1117 27.1365 27.0397 27.1365 23.6477C27.1365 20.2557 26.2405 17.5037 24.4485 15.3917C22.7205 13.2797 20.7685 12.2237 18.5925 12.2237C18.0165 12.2237 16.7045 12.3837 14.6565 12.7037C14.3365 21.7277 14.1445 30.4637 14.0805 38.9117C18.1125 37.6317 21.2805 35.6157 23.5845 32.8637ZM64.2735 72.3197C58.1935 72.3197 53.0415 69.5997 48.8175 64.1597C44.6575 58.6557 42.5775 50.3357 42.5775 39.1997C42.5775 27.9997 44.8495 18.8797 49.3935 11.8397C54.0015 4.79966 59.4095 1.27966 65.6175 1.27966C71.8255 1.27966 76.9775 4.03166 81.0735 9.53566C85.2335 15.0397 87.3135 23.3277 87.3135 34.3997C87.3135 45.4717 85.0095 54.5597 80.4015 61.6637C75.7935 68.7677 70.4175 72.3197 64.2735 72.3197ZM65.7135 12.7037C62.8975 12.7037 60.4655 15.1997 58.4175 20.1917C56.3695 25.1197 55.3455 31.3597 55.3455 38.9117C55.3455 46.3997 56.2095 51.9677 57.9375 55.6157C59.7295 59.1997 61.9375 60.9917 64.5615 60.9917C67.1855 60.9917 69.4895 58.4957 71.4735 53.5037C73.5215 48.5117 74.5455 42.2717 74.5455 34.7837C74.5455 27.2317 73.6815 21.6637 71.9535 18.0797C70.2895 14.4957 68.2095 12.7037 65.7135 12.7037ZM95.808 68.4797C95.36 58.6877 95.136 47.6477 95.136 35.3597C95.136 23.0717 95.456 12.5757 96.096 3.87166L109.248 5.11966C108.608 13.0557 108.288 22.8797 108.288 34.5917C116.352 21.3437 122.432 10.2397 126.528 1.27966L138.624 6.07966C134.016 15.2957 127.776 25.9837 119.904 38.1437C126.304 48.3197 132.48 55.9997 138.432 61.1837L129.6 71.1677C122.176 63.9357 115.072 54.0477 108.288 41.5037C108.288 53.2157 108.512 62.6877 108.96 69.9197L95.808 68.4797ZM145.982 69.4397C145.726 59.3277 145.598 49.7597 145.598 40.7357C145.598 31.7117 146.11 19.9677 147.134 5.50366C158.078 3.83966 168.766 3.00766 179.198 3.00766V14.8157C171.966 14.8157 165.246 15.0397 159.038 15.4877C158.782 22.6557 158.622 28.1597 158.558 31.9997C163.422 31.2957 169.182 30.8797 175.838 30.7517L177.662 41.3117C173.374 41.3757 166.942 41.8557 158.366 42.7517C158.366 50.4317 158.398 55.9677 158.462 59.3597C164.03 58.9117 170.686 57.9517 178.43 56.4797L180.062 67.0397C174.622 69.5357 168.19 70.7837 160.766 70.7837L145.982 69.4397Z" fill="black"/>
</svg>
